<?xml version="1.0" encoding="UTF-8"?><svg xmlns="http://www.w3.org/2000/svg" xmlns:xlink="http://www.w3.org/1999/xlink" width="375pt" zoomAndPan="magnify" viewBox="0 0 375 374.999991" height="374.999991pt" preserveAspectRatio="xMidYMid meet" version="1.2"><defs><g/><clipPath xml:id="clip1" id="clip1"><path d="M 101 116.363281 L 274.1875 116.363281 L 274.1875 191.363281 L 101 191.363281 Z M 101 116.363281 "/></clipPath></defs><g xml:id="surface1" id="surface1"><g clip-rule="nonzero" clip-path="url(#clip1)"><path style=" stroke:none;fill-rule:nonzero;fill:rgb(100%,74.119568%,34.899902%);fill-opacity:1;" d="M 245.753906 162.152344 L 245.753906 145.503906 L 248.582031 145.503906 L 248.582031 140.261719 L 230.328125 140.261719 L 230.328125 145.503906 L 233.15625 145.503906 L 233.15625 152.328125 L 187.785156 116.9375 L 187.699219 117.042969 L 187.617188 116.9375 L 101.039062 184.46875 L 106.234375 191.070312 L 187.703125 127.527344 L 269.167969 191.070312 L 274.363281 184.46875 Z M 245.753906 162.152344 "/></g><path style=" stroke:none;fill-rule:nonzero;fill:rgb(100%,74.119568%,34.899902%);fill-opacity:1;" d="M 176.464844 170.660156 L 185.464844 170.660156 L 185.464844 179.660156 L 176.464844 179.660156 Z M 176.464844 170.660156 "/><path style=" stroke:none;fill-rule:nonzero;fill:rgb(100%,74.119568%,34.899902%);fill-opacity:1;" d="M 176.464844 182.976562 L 185.464844 182.976562 L 185.464844 191.976562 L 176.464844 191.976562 Z M 176.464844 182.976562 "/><path style=" stroke:none;fill-rule:nonzero;fill:rgb(100%,74.119568%,34.899902%);fill-opacity:1;" d="M 189.835938 170.660156 L 198.835938 170.660156 L 198.835938 179.660156 L 189.835938 179.660156 Z M 189.835938 170.660156 "/><path style=" stroke:none;fill-rule:nonzero;fill:rgb(100%,74.119568%,34.899902%);fill-opacity:1;" d="M 189.835938 182.976562 L 198.835938 182.976562 L 198.835938 191.976562 L 189.835938 191.976562 Z M 189.835938 182.976562 "/><g style="fill:rgb(96.469116%,96.469116%,91.369629%);fill-opacity:1;"><g transform="translate(98.449371, 231.8527)"><path style="stroke:none;" d="M 3.359375 -2.625 L 4.359375 -19.3125 L 1.703125 -19.640625 L 1.703125 -22.3125 L 11.484375 -22.3125 L 14.921875 -10.890625 L 15.390625 -7.984375 L 16.015625 -10.890625 L 19.25 -22.3125 L 28.265625 -22.3125 L 28.265625 -19.640625 L 25.578125 -19.3125 L 27.046875 -2.59375 L 29.3125 -1.96875 L 29.3125 0 L 19.78125 0 L 19.78125 -1.96875 L 22.171875 -2.625 L 21.375 -13.625 L 21.3125 -19.484375 L 20.8125 -17.484375 L 15.71875 0.265625 L 13.828125 0.265625 L 9.09375 -13.984375 L 7.359375 -19.375 L 7.328125 -15.359375 L 6.890625 -2.65625 L 9.53125 -2 L 9.53125 0 L 0.890625 0 L 0.890625 -2 Z M 3.359375 -2.625 "/></g></g><g style="fill:rgb(96.469116%,96.469116%,91.369629%);fill-opacity:1;"><g transform="translate(126.885918, 231.8527)"><path style="stroke:none;" d="M 9.890625 -16.578125 C 12.578125 -16.578125 14.625 -15.878906 16.03125 -14.484375 C 17.445312 -13.085938 18.15625 -11.09375 18.15625 -8.5 C 18.15625 -6.71875 17.789062 -5.160156 17.0625 -3.828125 C 16.34375 -2.492188 15.328125 -1.460938 14.015625 -0.734375 C 12.710938 -0.00390625 11.203125 0.359375 9.484375 0.359375 C 6.773438 0.359375 4.6875 -0.378906 3.21875 -1.859375 C 1.757812 -3.347656 1.050781 -5.414062 1.09375 -8.0625 C 1.144531 -10.695312 1.957031 -12.753906 3.53125 -14.234375 C 5.101562 -15.710938 7.222656 -16.492188 9.890625 -16.578125 Z M 9.765625 -14.453125 C 8.585938 -14.453125 7.75 -13.90625 7.25 -12.8125 C 6.75 -11.726562 6.5 -10.285156 6.5 -8.484375 C 6.5 -6.671875 6.742188 -5.097656 7.234375 -3.765625 C 7.734375 -2.429688 8.539062 -1.765625 9.65625 -1.765625 C 10.851562 -1.765625 11.671875 -2.363281 12.109375 -3.5625 C 12.554688 -4.757812 12.78125 -6.320312 12.78125 -8.25 C 12.78125 -10.050781 12.550781 -11.535156 12.09375 -12.703125 C 11.644531 -13.867188 10.867188 -14.453125 9.765625 -14.453125 Z M 9.765625 -14.453125 "/></g></g><g style="fill:rgb(96.469116%,96.469116%,91.369629%);fill-opacity:1;"><g transform="translate(144.901612, 231.8527)"><path style="stroke:none;" d="M 3.171875 -2.328125 L 3.171875 -11.78125 L 1.234375 -13.15625 L 1.234375 -14.953125 L 6.5625 -16.546875 L 7.59375 -16.28125 L 7.59375 -13.484375 C 7.726562 -14.015625 8.023438 -14.515625 8.484375 -14.984375 C 8.953125 -15.453125 9.476562 -15.828125 10.0625 -16.109375 C 10.65625 -16.398438 11.207031 -16.546875 11.71875 -16.546875 C 12.519531 -16.546875 13.039062 -16.488281 13.28125 -16.375 L 13.28125 -11.828125 C 13.0625 -12.046875 12.691406 -12.210938 12.171875 -12.328125 C 11.648438 -12.453125 11.203125 -12.515625 10.828125 -12.515625 C 10.285156 -12.515625 9.769531 -12.457031 9.28125 -12.34375 C 8.800781 -12.238281 8.460938 -12.117188 8.265625 -11.984375 L 8.265625 -2.4375 L 11.625 -1.9375 L 11.625 0 L 1.40625 0 L 1.40625 -1.9375 Z M 3.171875 -2.328125 "/></g></g><g style="fill:rgb(96.469116%,96.469116%,91.369629%);fill-opacity:1;"><g transform="translate(157.618578, 231.8527)"><path style="stroke:none;" d="M 7.328125 -16.078125 L 12.25 -16.078125 L 12.25 -13.515625 L 7.53125 -13.515625 L 7.53125 -7.984375 C 7.53125 -6.679688 7.5625 -5.675781 7.625 -4.96875 C 7.6875 -4.269531 7.84375 -3.691406 8.09375 -3.234375 C 8.351562 -2.785156 8.753906 -2.5625 9.296875 -2.5625 C 9.648438 -2.5625 10.097656 -2.613281 10.640625 -2.71875 C 11.179688 -2.832031 11.566406 -2.945312 11.796875 -3.0625 L 12.5625 -1.4375 C 11.976562 -0.851562 11.140625 -0.40625 10.046875 -0.09375 C 8.960938 0.207031 7.859375 0.359375 6.734375 0.359375 C 5.660156 0.359375 4.820312 0.171875 4.21875 -0.203125 C 3.625 -0.578125 3.203125 -1.144531 2.953125 -1.90625 C 2.710938 -2.675781 2.59375 -3.691406 2.59375 -4.953125 L 2.59375 -13.515625 L 0.40625 -13.515625 L 0.40625 -15.125 C 1.664062 -15.320312 2.585938 -15.71875 3.171875 -16.3125 C 3.523438 -16.664062 3.820312 -17.113281 4.0625 -17.65625 C 4.3125 -18.207031 4.597656 -18.960938 4.921875 -19.921875 L 7.328125 -19.921875 Z M 7.328125 -16.078125 "/></g></g><g style="fill:rgb(96.469116%,96.469116%,91.369629%);fill-opacity:1;"><g transform="translate(169.717357, 231.8527)"><path style="stroke:none;" d="M 8.890625 -16.546875 C 11.085938 -16.546875 12.773438 -16.09375 13.953125 -15.1875 C 14.378906 -16.09375 15.445312 -16.546875 17.15625 -16.546875 L 18.421875 -16.546875 L 18.421875 -13.0625 L 15.453125 -13.0625 C 15.628906 -12.539062 15.71875 -11.953125 15.71875 -11.296875 C 15.71875 -9.398438 15.03125 -7.96875 13.65625 -7 C 12.28125 -6.039062 10.492188 -5.5625 8.296875 -5.5625 C 7.316406 -5.5625 6.472656 -5.628906 5.765625 -5.765625 C 5.609375 -5.390625 5.53125 -5.046875 5.53125 -4.734375 C 5.53125 -4.171875 5.703125 -3.753906 6.046875 -3.484375 C 6.390625 -3.222656 6.90625 -3.09375 7.59375 -3.09375 L 10.984375 -3.09375 C 12.585938 -3.09375 13.882812 -2.957031 14.875 -2.6875 C 15.875 -2.425781 16.625 -1.957031 17.125 -1.28125 C 17.632812 -0.601562 17.890625 0.351562 17.890625 1.59375 C 17.890625 2.90625 17.445312 4.015625 16.5625 4.921875 C 15.6875 5.835938 14.523438 6.515625 13.078125 6.953125 C 11.640625 7.398438 10.066406 7.625 8.359375 7.625 C 6.117188 7.625 4.332031 7.296875 3 6.640625 C 1.664062 5.984375 1 4.898438 1 3.390625 C 1 2.566406 1.21875 1.816406 1.65625 1.140625 C 2.101562 0.460938 2.691406 -0.0820312 3.421875 -0.5 C 2.785156 -0.757812 2.359375 -1.085938 2.140625 -1.484375 C 1.929688 -1.890625 1.828125 -2.460938 1.828125 -3.203125 C 1.828125 -3.691406 2.023438 -4.242188 2.421875 -4.859375 C 2.828125 -5.484375 3.273438 -6.003906 3.765625 -6.421875 C 1.898438 -7.316406 0.96875 -8.785156 0.96875 -10.828125 C 0.96875 -12.066406 1.328125 -13.117188 2.046875 -13.984375 C 2.765625 -14.847656 3.722656 -15.488281 4.921875 -15.90625 C 6.117188 -16.332031 7.441406 -16.546875 8.890625 -16.546875 Z M 8.390625 -14.546875 C 7.640625 -14.546875 7.046875 -14.300781 6.609375 -13.8125 C 6.171875 -13.332031 5.953125 -12.703125 5.953125 -11.921875 C 5.953125 -10.648438 6.15625 -9.65625 6.5625 -8.9375 C 6.976562 -8.21875 7.675781 -7.859375 8.65625 -7.859375 C 9.457031 -7.859375 10.054688 -8.164062 10.453125 -8.78125 C 10.847656 -9.40625 11.046875 -10.1875 11.046875 -11.125 C 11.046875 -12.226562 10.816406 -13.070312 10.359375 -13.65625 C 9.910156 -14.25 9.253906 -14.546875 8.390625 -14.546875 Z M 5.703125 -0.0625 C 5.429688 0.488281 5.296875 1.164062 5.296875 1.96875 C 5.296875 3.09375 5.671875 3.9375 6.421875 4.5 C 7.179688 5.070312 8.148438 5.359375 9.328125 5.359375 C 10.679688 5.359375 11.671875 5.179688 12.296875 4.828125 C 12.929688 4.472656 13.25 3.773438 13.25 2.734375 C 13.25 1.671875 13.007812 0.945312 12.53125 0.5625 C 12.0625 0.1875 11.222656 0 10.015625 0 L 7.484375 0 C 6.648438 0 6.054688 -0.0195312 5.703125 -0.0625 Z M 5.703125 -0.0625 "/></g></g><g style="fill:rgb(96.469116%,96.469116%,91.369629%);fill-opacity:1;"><g transform="translate(186.879368, 231.8527)"><path style="stroke:none;" d="M 9.0625 -16.546875 C 11.300781 -16.546875 12.957031 -16.078125 14.03125 -15.140625 C 15.113281 -14.210938 15.65625 -12.707031 15.65625 -10.625 L 15.65625 -1.9375 L 17.546875 -1.9375 L 17.546875 -0.40625 C 17.148438 -0.132812 16.601562 0.0664062 15.90625 0.203125 C 15.207031 0.335938 14.515625 0.40625 13.828125 0.40625 C 13.109375 0.40625 12.507812 0.265625 12.03125 -0.015625 C 11.5625 -0.296875 11.300781 -0.703125 11.25 -1.234375 C 10.09375 -0.140625 8.695312 0.40625 7.0625 0.40625 C 5.257812 0.40625 3.796875 0 2.671875 -0.8125 C 1.554688 -1.625 1 -2.753906 1 -4.203125 C 1 -5.503906 1.445312 -6.59375 2.34375 -7.46875 C 3.25 -8.351562 4.429688 -9.007812 5.890625 -9.4375 C 7.359375 -9.875 8.914062 -10.09375 10.5625 -10.09375 L 10.5625 -10.28125 C 10.539062 -11.570312 10.3125 -12.484375 9.875 -13.015625 C 9.4375 -13.546875 8.644531 -13.8125 7.5 -13.8125 C 6.675781 -13.8125 5.804688 -13.691406 4.890625 -13.453125 C 3.984375 -13.210938 3.273438 -12.914062 2.765625 -12.5625 L 1.796875 -14.78125 C 2.503906 -15.34375 3.554688 -15.773438 4.953125 -16.078125 C 6.359375 -16.390625 7.726562 -16.546875 9.0625 -16.546875 Z M 10.5625 -7.890625 C 9.289062 -7.890625 8.238281 -7.632812 7.40625 -7.125 C 6.570312 -6.613281 6.15625 -5.847656 6.15625 -4.828125 C 6.15625 -4.023438 6.351562 -3.410156 6.75 -2.984375 C 7.15625 -2.566406 7.75 -2.359375 8.53125 -2.359375 C 9.394531 -2.359375 10.070312 -2.5625 10.5625 -2.96875 Z M 10.5625 -7.890625 "/></g></g><g style="fill:rgb(96.469116%,96.469116%,91.369629%);fill-opacity:1;"><g transform="translate(203.334878, 231.8527)"><path style="stroke:none;" d="M 8.890625 -16.546875 C 11.085938 -16.546875 12.773438 -16.09375 13.953125 -15.1875 C 14.378906 -16.09375 15.445312 -16.546875 17.15625 -16.546875 L 18.421875 -16.546875 L 18.421875 -13.0625 L 15.453125 -13.0625 C 15.628906 -12.539062 15.71875 -11.953125 15.71875 -11.296875 C 15.71875 -9.398438 15.03125 -7.96875 13.65625 -7 C 12.28125 -6.039062 10.492188 -5.5625 8.296875 -5.5625 C 7.316406 -5.5625 6.472656 -5.628906 5.765625 -5.765625 C 5.609375 -5.390625 5.53125 -5.046875 5.53125 -4.734375 C 5.53125 -4.171875 5.703125 -3.753906 6.046875 -3.484375 C 6.390625 -3.222656 6.90625 -3.09375 7.59375 -3.09375 L 10.984375 -3.09375 C 12.585938 -3.09375 13.882812 -2.957031 14.875 -2.6875 C 15.875 -2.425781 16.625 -1.957031 17.125 -1.28125 C 17.632812 -0.601562 17.890625 0.351562 17.890625 1.59375 C 17.890625 2.90625 17.445312 4.015625 16.5625 4.921875 C 15.6875 5.835938 14.523438 6.515625 13.078125 6.953125 C 11.640625 7.398438 10.066406 7.625 8.359375 7.625 C 6.117188 7.625 4.332031 7.296875 3 6.640625 C 1.664062 5.984375 1 4.898438 1 3.390625 C 1 2.566406 1.21875 1.816406 1.65625 1.140625 C 2.101562 0.460938 2.691406 -0.0820312 3.421875 -0.5 C 2.785156 -0.757812 2.359375 -1.085938 2.140625 -1.484375 C 1.929688 -1.890625 1.828125 -2.460938 1.828125 -3.203125 C 1.828125 -3.691406 2.023438 -4.242188 2.421875 -4.859375 C 2.828125 -5.484375 3.273438 -6.003906 3.765625 -6.421875 C 1.898438 -7.316406 0.96875 -8.785156 0.96875 -10.828125 C 0.96875 -12.066406 1.328125 -13.117188 2.046875 -13.984375 C 2.765625 -14.847656 3.722656 -15.488281 4.921875 -15.90625 C 6.117188 -16.332031 7.441406 -16.546875 8.890625 -16.546875 Z M 8.390625 -14.546875 C 7.640625 -14.546875 7.046875 -14.300781 6.609375 -13.8125 C 6.171875 -13.332031 5.953125 -12.703125 5.953125 -11.921875 C 5.953125 -10.648438 6.15625 -9.65625 6.5625 -8.9375 C 6.976562 -8.21875 7.675781 -7.859375 8.65625 -7.859375 C 9.457031 -7.859375 10.054688 -8.164062 10.453125 -8.78125 C 10.847656 -9.40625 11.046875 -10.1875 11.046875 -11.125 C 11.046875 -12.226562 10.816406 -13.070312 10.359375 -13.65625 C 9.910156 -14.25 9.253906 -14.546875 8.390625 -14.546875 Z M 5.703125 -0.0625 C 5.429688 0.488281 5.296875 1.164062 5.296875 1.96875 C 5.296875 3.09375 5.671875 3.9375 6.421875 4.5 C 7.179688 5.070312 8.148438 5.359375 9.328125 5.359375 C 10.679688 5.359375 11.671875 5.179688 12.296875 4.828125 C 12.929688 4.472656 13.25 3.773438 13.25 2.734375 C 13.25 1.671875 13.007812 0.945312 12.53125 0.5625 C 12.0625 0.1875 11.222656 0 10.015625 0 L 7.484375 0 C 6.648438 0 6.054688 -0.0195312 5.703125 -0.0625 Z M 5.703125 -0.0625 "/></g></g><g style="fill:rgb(96.469116%,96.469116%,91.369629%);fill-opacity:1;"><g transform="translate(220.496894, 231.8527)"><path style="stroke:none;" d="M 9.859375 -16.546875 C 12.035156 -16.546875 13.695312 -16 14.84375 -14.90625 C 16 -13.820312 16.578125 -12.238281 16.578125 -10.15625 C 16.578125 -9.289062 16.507812 -8.445312 16.375 -7.625 L 6.359375 -7.625 C 6.492188 -5.914062 6.929688 -4.628906 7.671875 -3.765625 C 8.421875 -2.898438 9.503906 -2.46875 10.921875 -2.46875 C 12.492188 -2.46875 14.015625 -2.789062 15.484375 -3.4375 L 16.25 -1.65625 C 15.476562 -1 14.453125 -0.488281 13.171875 -0.125 C 11.890625 0.226562 10.660156 0.40625 9.484375 0.40625 C 6.796875 0.40625 4.71875 -0.289062 3.25 -1.6875 C 1.789062 -3.09375 1.0625 -5.070312 1.0625 -7.625 C 1.0625 -9.351562 1.429688 -10.894531 2.171875 -12.25 C 2.921875 -13.601562 3.960938 -14.65625 5.296875 -15.40625 C 6.628906 -16.164062 8.148438 -16.546875 9.859375 -16.546875 Z M 9.421875 -14.546875 C 7.628906 -14.546875 6.609375 -13.003906 6.359375 -9.921875 L 11.625 -9.921875 C 11.707031 -10.628906 11.75 -11.226562 11.75 -11.71875 C 11.75 -13.601562 10.972656 -14.546875 9.421875 -14.546875 Z M 9.421875 -14.546875 "/></g></g><g style="fill:rgb(96.469116%,96.469116%,91.369629%);fill-opacity:1;"><g transform="translate(237.129026, 231.8527)"><path style="stroke:none;" d=""/></g></g><g style="fill:rgb(96.469116%,96.469116%,91.369629%);fill-opacity:1;"><g transform="translate(242.545503, 231.8527)"><path style="stroke:none;" d="M 3.5 -2.59375 L 3.5 -19.640625 L 0.796875 -19.953125 L 0.796875 -22.3125 L 11.25 -22.3125 L 11.25 -19.953125 L 8.6875 -19.609375 L 8.6875 -2.625 L 11.390625 -2 L 11.390625 0 L 0.796875 0 L 0.796875 -2 Z M 3.5 -2.59375 "/></g></g><g style="fill:rgb(96.469116%,96.469116%,91.369629%);fill-opacity:1;"><g transform="translate(253.555096, 231.8527)"><path style="stroke:none;" d="M 11.796875 -22.515625 C 13.835938 -22.515625 15.640625 -22.039062 17.203125 -21.09375 C 18.765625 -20.144531 19.96875 -18.84375 20.8125 -17.1875 C 21.65625 -15.539062 22.078125 -13.6875 22.078125 -11.625 C 22.078125 -8.6875 21.382812 -6.160156 20 -4.046875 C 18.613281 -1.941406 16.675781 -0.570312 14.1875 0.0625 C 14.757812 1.28125 15.890625 1.890625 17.578125 1.890625 C 18.691406 1.890625 19.957031 1.648438 21.375 1.171875 L 21.375 4.328125 C 20.914062 4.773438 20.300781 5.101562 19.53125 5.3125 C 18.757812 5.519531 17.957031 5.625 17.125 5.625 C 14.257812 5.625 12.476562 3.882812 11.78125 0.40625 L 11.515625 0.40625 C 9.453125 0.40625 7.617188 -0.0625 6.015625 -1 C 4.421875 -1.9375 3.1875 -3.238281 2.3125 -4.90625 C 1.4375 -6.582031 1 -8.46875 1 -10.5625 C 1 -12.84375 1.488281 -14.914062 2.46875 -16.78125 C 3.445312 -18.644531 4.832031 -20.085938 6.625 -21.109375 C 8.175781 -22.046875 9.898438 -22.515625 11.796875 -22.515625 Z M 11.65625 -20.171875 C 9.71875 -20.171875 8.398438 -19.347656 7.703125 -17.703125 C 7.003906 -16.066406 6.65625 -13.785156 6.65625 -10.859375 C 6.65625 -9.390625 6.84375 -7.96875 7.21875 -6.59375 C 7.601562 -5.21875 8.175781 -4.085938 8.9375 -3.203125 C 9.707031 -2.328125 10.625 -1.890625 11.6875 -1.890625 C 13 -1.890625 14.003906 -2.285156 14.703125 -3.078125 C 15.398438 -3.867188 15.863281 -4.9375 16.09375 -6.28125 C 16.332031 -7.625 16.453125 -9.304688 16.453125 -11.328125 C 16.453125 -12.804688 16.273438 -14.222656 15.921875 -15.578125 C 15.566406 -16.929688 15.023438 -18.035156 14.296875 -18.890625 C 13.578125 -19.742188 12.695312 -20.171875 11.65625 -20.171875 Z M 11.65625 -20.171875 "/></g></g><g style="fill:rgb(96.469116%,96.469116%,91.369629%);fill-opacity:1;"><g transform="translate(145.754026, 254.54889)"><path style="stroke:none;" d="M 0.53125 -4.015625 L 1.765625 -4.015625 C 2.203125 -4.015625 2.546875 -3.9375 2.796875 -3.78125 C 3.046875 -3.625 3.171875 -3.375 3.171875 -3.03125 C 3.171875 -2.820312 3.117188 -2.640625 3.015625 -2.484375 C 2.921875 -2.328125 2.785156 -2.21875 2.609375 -2.15625 L 2.609375 -2.125 C 2.847656 -2.070312 3.039062 -1.960938 3.1875 -1.796875 C 3.332031 -1.640625 3.40625 -1.429688 3.40625 -1.171875 C 3.40625 -0.785156 3.265625 -0.492188 2.984375 -0.296875 C 2.703125 -0.0976562 2.332031 0 1.875 0 L 0.53125 0 Z M 1.703125 -2.328125 C 2.273438 -2.328125 2.5625 -2.53125 2.5625 -2.9375 C 2.5625 -3.144531 2.492188 -3.289062 2.359375 -3.375 C 2.222656 -3.46875 2.007812 -3.515625 1.71875 -3.515625 L 1.15625 -3.515625 L 1.15625 -2.328125 Z M 1.796875 -0.484375 C 2.117188 -0.484375 2.363281 -0.539062 2.53125 -0.65625 C 2.695312 -0.78125 2.78125 -0.960938 2.78125 -1.203125 C 2.78125 -1.640625 2.453125 -1.859375 1.796875 -1.859375 L 1.15625 -1.859375 L 1.15625 -0.484375 Z M 1.796875 -0.484375 "/></g></g><g style="fill:rgb(96.469116%,96.469116%,91.369629%);fill-opacity:1;"><g transform="translate(149.692423, 254.54889)"><path style="stroke:none;" d="M 0.53125 -4.015625 L 2.890625 -4.015625 L 2.890625 -3.484375 L 1.15625 -3.484375 L 1.15625 -2.359375 L 2.625 -2.359375 L 2.625 -1.828125 L 1.15625 -1.828125 L 1.15625 -0.53125 L 2.953125 -0.53125 L 2.953125 0 L 0.53125 0 Z M 0.53125 -4.015625 "/></g></g><g style="fill:rgb(96.469116%,96.469116%,91.369629%);fill-opacity:1;"><g transform="translate(153.26332, 254.54889)"><path style="stroke:none;" d="M 1.34375 -3.484375 L 0.171875 -3.484375 L 0.171875 -4.015625 L 3.15625 -4.015625 L 3.15625 -3.484375 L 1.96875 -3.484375 L 1.96875 0 L 1.34375 0 Z M 1.34375 -3.484375 "/></g></g><g style="fill:rgb(96.469116%,96.469116%,91.369629%);fill-opacity:1;"><g transform="translate(156.889341, 254.54889)"><path style="stroke:none;" d="M 1.34375 -3.484375 L 0.171875 -3.484375 L 0.171875 -4.015625 L 3.15625 -4.015625 L 3.15625 -3.484375 L 1.96875 -3.484375 L 1.96875 0 L 1.34375 0 Z M 1.34375 -3.484375 "/></g></g><g style="fill:rgb(96.469116%,96.469116%,91.369629%);fill-opacity:1;"><g transform="translate(160.515364, 254.54889)"><path style="stroke:none;" d="M 0.53125 -4.015625 L 2.890625 -4.015625 L 2.890625 -3.484375 L 1.15625 -3.484375 L 1.15625 -2.359375 L 2.625 -2.359375 L 2.625 -1.828125 L 1.15625 -1.828125 L 1.15625 -0.53125 L 2.953125 -0.53125 L 2.953125 0 L 0.53125 0 Z M 0.53125 -4.015625 "/></g></g><g style="fill:rgb(96.469116%,96.469116%,91.369629%);fill-opacity:1;"><g transform="translate(164.08626, 254.54889)"><path style="stroke:none;" d="M 2.71875 0 L 1.8125 -1.625 L 1.15625 -1.625 L 1.15625 0 L 0.53125 0 L 0.53125 -4.015625 L 1.84375 -4.015625 C 2.289062 -4.015625 2.640625 -3.921875 2.890625 -3.734375 C 3.148438 -3.554688 3.28125 -3.257812 3.28125 -2.84375 C 3.28125 -2.550781 3.203125 -2.304688 3.046875 -2.109375 C 2.898438 -1.921875 2.695312 -1.785156 2.4375 -1.703125 L 3.421875 0 Z M 1.15625 -2.125 L 1.765625 -2.125 C 2.054688 -2.125 2.28125 -2.179688 2.4375 -2.296875 C 2.59375 -2.421875 2.671875 -2.601562 2.671875 -2.84375 C 2.671875 -3.082031 2.59375 -3.253906 2.4375 -3.359375 C 2.289062 -3.460938 2.066406 -3.515625 1.765625 -3.515625 L 1.15625 -3.515625 Z M 1.15625 -2.125 "/></g></g><g style="fill:rgb(96.469116%,96.469116%,91.369629%);fill-opacity:1;"><g transform="translate(167.957287, 254.54889)"><path style="stroke:none;" d=""/></g></g><g style="fill:rgb(96.469116%,96.469116%,91.369629%);fill-opacity:1;"><g transform="translate(169.488549, 254.54889)"><path style="stroke:none;" d="M 0.53125 -4.015625 L 1.15625 -4.015625 L 1.15625 -0.53125 L 2.859375 -0.53125 L 2.859375 0 L 0.53125 0 Z M 0.53125 -4.015625 "/></g></g><g style="fill:rgb(96.469116%,96.469116%,91.369629%);fill-opacity:1;"><g transform="translate(172.826698, 254.54889)"><path style="stroke:none;" d="M 2.046875 0.078125 C 1.703125 0.078125 1.398438 -0.00390625 1.140625 -0.171875 C 0.878906 -0.347656 0.675781 -0.59375 0.53125 -0.90625 C 0.382812 -1.226562 0.3125 -1.597656 0.3125 -2.015625 C 0.3125 -2.441406 0.382812 -2.8125 0.53125 -3.125 C 0.675781 -3.4375 0.878906 -3.671875 1.140625 -3.828125 C 1.398438 -3.992188 1.703125 -4.078125 2.046875 -4.078125 C 2.390625 -4.078125 2.691406 -3.992188 2.953125 -3.828125 C 3.222656 -3.671875 3.429688 -3.4375 3.578125 -3.125 C 3.722656 -2.8125 3.796875 -2.441406 3.796875 -2.015625 C 3.796875 -1.597656 3.722656 -1.226562 3.578125 -0.90625 C 3.429688 -0.59375 3.222656 -0.347656 2.953125 -0.171875 C 2.691406 -0.00390625 2.390625 0.078125 2.046875 0.078125 Z M 2.046875 -0.46875 C 2.265625 -0.46875 2.457031 -0.53125 2.625 -0.65625 C 2.800781 -0.78125 2.929688 -0.960938 3.015625 -1.203125 C 3.109375 -1.441406 3.15625 -1.710938 3.15625 -2.015625 C 3.15625 -2.484375 3.050781 -2.851562 2.84375 -3.125 C 2.644531 -3.40625 2.378906 -3.546875 2.046875 -3.546875 C 1.710938 -3.546875 1.445312 -3.40625 1.25 -3.125 C 1.050781 -2.851562 0.953125 -2.484375 0.953125 -2.015625 C 0.953125 -1.710938 0.992188 -1.441406 1.078125 -1.203125 C 1.171875 -0.960938 1.300781 -0.78125 1.46875 -0.65625 C 1.632812 -0.53125 1.828125 -0.46875 2.046875 -0.46875 Z M 2.046875 -0.46875 "/></g></g><g style="fill:rgb(96.469116%,96.469116%,91.369629%);fill-opacity:1;"><g transform="translate(177.236725, 254.54889)"><path style="stroke:none;" d="M 2.375 -1.140625 L 0.984375 -1.140625 L 0.640625 0 L 0 0 L 1.328125 -4.015625 L 2.046875 -4.015625 L 3.375 0 L 2.71875 0 Z M 2.234375 -1.640625 L 2.0625 -2.1875 C 2.007812 -2.375 1.945312 -2.59375 1.875 -2.84375 C 1.800781 -3.101562 1.75 -3.289062 1.71875 -3.40625 C 1.71875 -3.4375 1.707031 -3.472656 1.6875 -3.515625 L 1.671875 -3.515625 C 1.535156 -3.015625 1.410156 -2.570312 1.296875 -2.1875 L 1.140625 -1.640625 Z M 2.234375 -1.640625 "/></g></g><g style="fill:rgb(96.469116%,96.469116%,91.369629%);fill-opacity:1;"><g transform="translate(180.924001, 254.54889)"><path style="stroke:none;" d="M 0.53125 -4.015625 L 1.171875 -4.015625 L 2.5 -1.640625 L 2.921875 -0.796875 L 2.953125 -0.796875 C 2.941406 -0.929688 2.929688 -1.023438 2.921875 -1.078125 C 2.921875 -1.117188 2.910156 -1.253906 2.890625 -1.484375 C 2.878906 -1.710938 2.875 -1.925781 2.875 -2.125 L 2.875 -4.015625 L 3.46875 -4.015625 L 3.46875 0 L 2.828125 0 L 1.484375 -2.375 L 1.0625 -3.21875 L 1.046875 -3.21875 L 1.0625 -2.90625 C 1.070312 -2.851562 1.082031 -2.71875 1.09375 -2.5 C 1.113281 -2.289062 1.125 -2.09375 1.125 -1.90625 L 1.125 0 L 0.53125 0 Z M 0.53125 -4.015625 "/></g></g><g style="fill:rgb(96.469116%,96.469116%,91.369629%);fill-opacity:1;"><g transform="translate(185.223776, 254.54889)"><path style="stroke:none;" d="M 0.828125 -0.796875 C 0.984375 -0.796875 1.101562 -0.738281 1.1875 -0.625 C 1.269531 -0.507812 1.3125 -0.347656 1.3125 -0.140625 C 1.3125 0.140625 1.234375 0.382812 1.078125 0.59375 C 0.921875 0.8125 0.703125 0.972656 0.421875 1.078125 L 0.28125 0.734375 C 0.46875 0.660156 0.613281 0.554688 0.71875 0.421875 C 0.820312 0.296875 0.875 0.148438 0.875 -0.015625 C 0.863281 -0.00390625 0.847656 0 0.828125 0 C 0.710938 0 0.613281 -0.0351562 0.53125 -0.109375 C 0.445312 -0.179688 0.40625 -0.28125 0.40625 -0.40625 C 0.40625 -0.519531 0.445312 -0.613281 0.53125 -0.6875 C 0.613281 -0.757812 0.710938 -0.796875 0.828125 -0.796875 Z M 0.828125 -0.796875 "/></g></g><g style="fill:rgb(96.469116%,96.469116%,91.369629%);fill-opacity:1;"><g transform="translate(187.147041, 254.54889)"><path style="stroke:none;" d=""/></g></g><g style="fill:rgb(96.469116%,96.469116%,91.369629%);fill-opacity:1;"><g transform="translate(188.678302, 254.54889)"><path style="stroke:none;" d="M 0.53125 -4.015625 L 1.765625 -4.015625 C 2.203125 -4.015625 2.546875 -3.9375 2.796875 -3.78125 C 3.046875 -3.625 3.171875 -3.375 3.171875 -3.03125 C 3.171875 -2.820312 3.117188 -2.640625 3.015625 -2.484375 C 2.921875 -2.328125 2.785156 -2.21875 2.609375 -2.15625 L 2.609375 -2.125 C 2.847656 -2.070312 3.039062 -1.960938 3.1875 -1.796875 C 3.332031 -1.640625 3.40625 -1.429688 3.40625 -1.171875 C 3.40625 -0.785156 3.265625 -0.492188 2.984375 -0.296875 C 2.703125 -0.0976562 2.332031 0 1.875 0 L 0.53125 0 Z M 1.703125 -2.328125 C 2.273438 -2.328125 2.5625 -2.53125 2.5625 -2.9375 C 2.5625 -3.144531 2.492188 -3.289062 2.359375 -3.375 C 2.222656 -3.46875 2.007812 -3.515625 1.71875 -3.515625 L 1.15625 -3.515625 L 1.15625 -2.328125 Z M 1.796875 -0.484375 C 2.117188 -0.484375 2.363281 -0.539062 2.53125 -0.65625 C 2.695312 -0.78125 2.78125 -0.960938 2.78125 -1.203125 C 2.78125 -1.640625 2.453125 -1.859375 1.796875 -1.859375 L 1.15625 -1.859375 L 1.15625 -0.484375 Z M 1.796875 -0.484375 "/></g></g><g style="fill:rgb(96.469116%,96.469116%,91.369629%);fill-opacity:1;"><g transform="translate(192.616698, 254.54889)"><path style="stroke:none;" d="M 0.53125 -4.015625 L 2.890625 -4.015625 L 2.890625 -3.484375 L 1.15625 -3.484375 L 1.15625 -2.359375 L 2.625 -2.359375 L 2.625 -1.828125 L 1.15625 -1.828125 L 1.15625 -0.53125 L 2.953125 -0.53125 L 2.953125 0 L 0.53125 0 Z M 0.53125 -4.015625 "/></g></g><g style="fill:rgb(96.469116%,96.469116%,91.369629%);fill-opacity:1;"><g transform="translate(196.187594, 254.54889)"><path style="stroke:none;" d="M 1.34375 -3.484375 L 0.171875 -3.484375 L 0.171875 -4.015625 L 3.15625 -4.015625 L 3.15625 -3.484375 L 1.96875 -3.484375 L 1.96875 0 L 1.34375 0 Z M 1.34375 -3.484375 "/></g></g><g style="fill:rgb(96.469116%,96.469116%,91.369629%);fill-opacity:1;"><g transform="translate(199.813615, 254.54889)"><path style="stroke:none;" d="M 1.34375 -3.484375 L 0.171875 -3.484375 L 0.171875 -4.015625 L 3.15625 -4.015625 L 3.15625 -3.484375 L 1.96875 -3.484375 L 1.96875 0 L 1.34375 0 Z M 1.34375 -3.484375 "/></g></g><g style="fill:rgb(96.469116%,96.469116%,91.369629%);fill-opacity:1;"><g transform="translate(203.439637, 254.54889)"><path style="stroke:none;" d="M 0.53125 -4.015625 L 2.890625 -4.015625 L 2.890625 -3.484375 L 1.15625 -3.484375 L 1.15625 -2.359375 L 2.625 -2.359375 L 2.625 -1.828125 L 1.15625 -1.828125 L 1.15625 -0.53125 L 2.953125 -0.53125 L 2.953125 0 L 0.53125 0 Z M 0.53125 -4.015625 "/></g></g><g style="fill:rgb(96.469116%,96.469116%,91.369629%);fill-opacity:1;"><g transform="translate(207.010532, 254.54889)"><path style="stroke:none;" d="M 2.71875 0 L 1.8125 -1.625 L 1.15625 -1.625 L 1.15625 0 L 0.53125 0 L 0.53125 -4.015625 L 1.84375 -4.015625 C 2.289062 -4.015625 2.640625 -3.921875 2.890625 -3.734375 C 3.148438 -3.554688 3.28125 -3.257812 3.28125 -2.84375 C 3.28125 -2.550781 3.203125 -2.304688 3.046875 -2.109375 C 2.898438 -1.921875 2.695312 -1.785156 2.4375 -1.703125 L 3.421875 0 Z M 1.15625 -2.125 L 1.765625 -2.125 C 2.054688 -2.125 2.28125 -2.179688 2.4375 -2.296875 C 2.59375 -2.421875 2.671875 -2.601562 2.671875 -2.84375 C 2.671875 -3.082031 2.59375 -3.253906 2.4375 -3.359375 C 2.289062 -3.460938 2.066406 -3.515625 1.765625 -3.515625 L 1.15625 -3.515625 Z M 1.15625 -2.125 "/></g></g><g style="fill:rgb(96.469116%,96.469116%,91.369629%);fill-opacity:1;"><g transform="translate(210.881559, 254.54889)"><path style="stroke:none;" d=""/></g></g><g style="fill:rgb(96.469116%,96.469116%,91.369629%);fill-opacity:1;"><g transform="translate(212.412825, 254.54889)"><path style="stroke:none;" d="M 0.53125 -4.015625 L 1.15625 -4.015625 L 1.15625 -2.375 L 2.875 -2.375 L 2.875 -4.015625 L 3.5 -4.015625 L 3.5 0 L 2.875 0 L 2.875 -1.828125 L 1.15625 -1.828125 L 1.15625 0 L 0.53125 0 Z M 0.53125 -4.015625 "/></g></g><g style="fill:rgb(96.469116%,96.469116%,91.369629%);fill-opacity:1;"><g transform="translate(216.749357, 254.54889)"><path style="stroke:none;" d="M 2.046875 0.078125 C 1.703125 0.078125 1.398438 -0.00390625 1.140625 -0.171875 C 0.878906 -0.347656 0.675781 -0.59375 0.53125 -0.90625 C 0.382812 -1.226562 0.3125 -1.597656 0.3125 -2.015625 C 0.3125 -2.441406 0.382812 -2.8125 0.53125 -3.125 C 0.675781 -3.4375 0.878906 -3.671875 1.140625 -3.828125 C 1.398438 -3.992188 1.703125 -4.078125 2.046875 -4.078125 C 2.390625 -4.078125 2.691406 -3.992188 2.953125 -3.828125 C 3.222656 -3.671875 3.429688 -3.4375 3.578125 -3.125 C 3.722656 -2.8125 3.796875 -2.441406 3.796875 -2.015625 C 3.796875 -1.597656 3.722656 -1.226562 3.578125 -0.90625 C 3.429688 -0.59375 3.222656 -0.347656 2.953125 -0.171875 C 2.691406 -0.00390625 2.390625 0.078125 2.046875 0.078125 Z M 2.046875 -0.46875 C 2.265625 -0.46875 2.457031 -0.53125 2.625 -0.65625 C 2.800781 -0.78125 2.929688 -0.960938 3.015625 -1.203125 C 3.109375 -1.441406 3.15625 -1.710938 3.15625 -2.015625 C 3.15625 -2.484375 3.050781 -2.851562 2.84375 -3.125 C 2.644531 -3.40625 2.378906 -3.546875 2.046875 -3.546875 C 1.710938 -3.546875 1.445312 -3.40625 1.25 -3.125 C 1.050781 -2.851562 0.953125 -2.484375 0.953125 -2.015625 C 0.953125 -1.710938 0.992188 -1.441406 1.078125 -1.203125 C 1.171875 -0.960938 1.300781 -0.78125 1.46875 -0.65625 C 1.632812 -0.53125 1.828125 -0.46875 2.046875 -0.46875 Z M 2.046875 -0.46875 "/></g></g><g style="fill:rgb(96.469116%,96.469116%,91.369629%);fill-opacity:1;"><g transform="translate(221.159388, 254.54889)"><path style="stroke:none;" d="M 0.53125 -4.015625 L 1.25 -4.015625 L 1.984375 -1.96875 L 2.125 -1.53125 L 2.25 -1.15625 L 2.28125 -1.15625 C 2.34375 -1.351562 2.382812 -1.484375 2.40625 -1.546875 L 2.546875 -1.96875 L 3.265625 -4.015625 L 3.984375 -4.015625 L 3.984375 0 L 3.40625 0 L 3.40625 -2 C 3.40625 -2.21875 3.429688 -2.582031 3.484375 -3.09375 L 3.484375 -3.234375 L 3.46875 -3.234375 L 3.140625 -2.3125 L 2.4375 -0.390625 L 2.0625 -0.390625 L 1.359375 -2.3125 L 1.03125 -3.234375 L 1.015625 -3.234375 L 1.015625 -3.09375 C 1.066406 -2.582031 1.09375 -2.21875 1.09375 -2 L 1.09375 0 L 0.53125 0 Z M 0.53125 -4.015625 "/></g></g><g style="fill:rgb(96.469116%,96.469116%,91.369629%);fill-opacity:1;"><g transform="translate(225.979794, 254.54889)"><path style="stroke:none;" d="M 0.53125 -4.015625 L 2.890625 -4.015625 L 2.890625 -3.484375 L 1.15625 -3.484375 L 1.15625 -2.359375 L 2.625 -2.359375 L 2.625 -1.828125 L 1.15625 -1.828125 L 1.15625 -0.53125 L 2.953125 -0.53125 L 2.953125 0 L 0.53125 0 Z M 0.53125 -4.015625 "/></g></g></g></svg>